<?xml version="1.0" encoding="UTF-8" standalone="no"?>
<!-- Created using Karbon14, part of koffice: http://www.koffice.org/karbon -->

<svg
   xmlns:dc="http://purl.org/dc/elements/1.1/"
   xmlns:cc="http://creativecommons.org/ns#"
   xmlns:rdf="http://www.w3.org/1999/02/22-rdf-syntax-ns#"
   xmlns:svg="http://www.w3.org/2000/svg"
   xmlns="http://www.w3.org/2000/svg"
   xmlns:sodipodi="http://sodipodi.sourceforge.net/DTD/sodipodi-0.dtd"
   xmlns:inkscape="http://www.inkscape.org/namespaces/inkscape"
   width="250"
   height="93.651512"
   id="svg3186"
   version="1.1"
   inkscape:version="0.48.4 r9939"
   sodipodi:docname="nlnet-logo.svg">
  <metadata
     id="metadata3221">
    <rdf:RDF>
      <cc:Work
         rdf:about="">
        <dc:format>image/svg+xml</dc:format>
        <dc:type
           rdf:resource="http://purl.org/dc/dcmitype/StillImage" />
      </cc:Work>
    </rdf:RDF>
  </metadata>
  <sodipodi:namedview
     pagecolor="#ffffff"
     bordercolor="#666666"
     borderopacity="1"
     objecttolerance="10"
     gridtolerance="10"
     guidetolerance="10"
     inkscape:pageopacity="0"
     inkscape:pageshadow="2"
     inkscape:window-width="1366"
     inkscape:window-height="709"
     id="namedview3219"
     showgrid="false"
     fit-margin-top="0"
     fit-margin-left="0"
     fit-margin-right="0"
     fit-margin-bottom="0"
     inkscape:zoom="0.67706013"
     inkscape:cx="224.40417"
     inkscape:cy="84.176646"
     inkscape:window-x="0"
     inkscape:window-y="27"
     inkscape:window-maximized="1"
     inkscape:current-layer="svg3186" />
  <defs
     id="defs3188" />
  <g
     id="Layer"
     transform="matrix(0.55678522,0,0,0.55678522,-0.05335641,0.013244)" />
  <g
     id="g3191"
     transform="matrix(0.55678522,0,0,0.55678522,-0.05335641,0.013244)">
    <path
       d="m 446.602,73.8789 2.5,-13.6449 -12.895,0 3.75,-20.089 -15.445,6.046 -2.5,14.043 -9.395,0 -2.5,13.6449 9.246,0 -3.148,17.293 c -0.149,0.9531 -0.399,2.3515 -0.649,4.1484 -0.25,1.8008 -0.402,3.3985 -0.402,4.7497 0.051,6.246 1.551,11.395 4.5,15.446 2.949,4.144 7.746,6.593 14.445,7.343 l 6.446,-13.293 c -3.45,-0.449 -6.047,-1.8 -7.895,-4.097 -1.851,-2.352 -2.75,-5.301 -2.75,-8.8987 0,-0.6992 0.102,-1.6992 0.25,-3.0469 0.149,-1.3515 0.301,-2.4492 0.449,-3.3007 l 3,-16.3438 12.993,0 0,0 z"
       id="path3193"
       inkscape:connector-curvature="0"
       style="fill:#98bf00" />
    <path
       d="m 310.707,72.332 c 2.398,-0.8515 4.5,-1.3008 6.25,-1.3008 1.898,0 3.496,0.5508 4.797,1.6485 1.25,1.0508 1.848,2.6015 1.848,4.75 0,0.5976 -0.098,1.5 -0.301,2.75 -0.199,1.1484 -0.348,2.1992 -0.496,3.0976 l -3.602,16.8907 c -0.25,1.301 -0.5,2.652 -0.75,4.051 -0.25,1.449 -0.348,2.699 -0.348,3.746 0,4.051 1.098,7.449 3.348,10.148 2.149,2.699 5.996,4.297 11.547,4.746 l 6.348,-12.843 c -2.153,-0.348 -3.7,-1.149 -4.649,-2.399 -1,-1.199 -1.5,-2.898 -1.5,-5.047 0,-0.5 0.051,-1.101 0.149,-1.75 0.05,-0.652 0.152,-1.1989 0.199,-1.6012 l 3.648,-17.1915 c 0.301,-1.4492 0.551,-2.8984 0.75,-4.3476 0.203,-1.3985 0.301,-2.8008 0.301,-4.1485 0,-4.9492 -1.449,-8.9452 -4.348,-11.8942 -2.949,-2.949 -7.046,-4.449 -12.296,-4.449 -3.047,0 -5.946,0.5 -8.793,1.5 -2.801,0.949 -6.2,2.546 -10.149,4.898 -0.148,-0.949 -0.5,-2.102 -1,-3.398 -0.547,-1.25 -1.148,-2.352 -1.797,-3.352 l -13.394,5.75 c 1.148,1.75 2.047,3.598 2.597,5.496 0.5,1.8985 0.75,3.6992 0.75,5.3477 0,0.8515 -0.05,1.8984 -0.199,3.0508 -0.101,1.1484 -0.25,2.0468 -0.402,2.6992 l -7.945,42.3323 14.394,0 8.445,-45.6839 c 2.051,-1.5469 4.25,-2.6992 6.598,-3.4961 l 0,0 z"
       id="path3195"
       inkscape:connector-curvature="0"
       style="fill:#98bf00" />
    <path
       d="m 350.742,80.0781 c -1.551,4.5977 -2.301,9.4961 -2.301,14.6446 0,4.4961 0.602,8.4963 1.75,11.9963 1.149,3.496 2.801,6.445 4.899,8.797 2.051,2.398 4.598,4.195 7.547,5.445 2.949,1.25 6.246,1.898 9.847,1.898 4.348,0 8.645,-0.797 12.946,-2.398 4.347,-1.598 8.144,-4.098 11.394,-7.445 l -5.398,-12.497 c -2.5,2.801 -5.25,4.899 -8.297,6.348 -3.051,1.449 -6.098,2.149 -9.098,2.149 -3.496,0 -6.246,-1.098 -8.246,-3.297 -1.949,-2.25 -2.949,-5.051 -2.949,-8.3479 l 0,-0.9492 c 0,-0.3985 0.051,-0.8008 0.152,-1.1992 2.649,-0.3516 5.645,-0.8008 8.996,-1.3985 3.348,-0.6015 6.746,-1.3008 10.196,-2.1015 3.449,-0.8477 6.797,-1.7969 10.093,-2.7969 3.25,-1 6.149,-2.0508 8.598,-3.1016 l 0,-5.7461 c 0,-3.5469 -0.551,-6.7461 -1.648,-9.5976 -1.149,-2.7465 -2.649,-5.1485 -4.598,-7.1955 -1.949,-2 -4.301,-3.5 -6.949,-4.5 -2.598,-1.047 -5.446,-1.597 -8.496,-1.597 -4.45,0 -8.598,1 -12.344,2.949 -3.801,1.949 -7.047,4.648 -9.695,8.0974 -2.75,3.3984 -4.848,7.3437 -6.399,11.8437 l 0,0 z m 21.641,-10.0976 c 1.551,-0.8477 3.301,-1.2461 5.25,-1.2461 2.648,0 4.847,0.8476 6.594,2.5976 1.75,1.6992 2.652,4.2461 2.652,7.6953 -1.449,0.4493 -3.152,1 -5.149,1.5508 -2.05,0.5 -4.097,1 -6.199,1.4492 -2.148,0.4493 -4.199,0.8985 -6.246,1.3008 -2.051,0.3477 -3.801,0.6485 -5.301,0.8985 0.25,-2.0977 0.704,-4.0977 1.403,-5.9493 0.75,-1.8476 1.699,-3.4961 2.847,-4.8984 1.25,-1.3984 2.598,-2.5469 4.149,-3.3984 l 0,0 z"
       id="path3197"
       inkscape:connector-curvature="0"
       style="fill:#98bf00;fill-rule:evenodd" />
    <path
       d="m 185.809,62.586 c 1.148,1.75 2.046,3.598 2.597,5.496 0.5,1.8985 0.75,3.6992 0.75,5.3477 0,0.8515 -0.051,1.8984 -0.199,3.0508 -0.102,1.1484 -0.25,2.0468 -0.402,2.6992 l -7.946,42.3323 14.395,0 8.445,-45.6839 c 2.051,-1.5469 4.25,-2.6992 6.598,-3.4961 2.398,-0.8515 4.5,-1.3008 6.25,-1.3008 1.898,0 3.496,0.5508 4.797,1.6485 1.25,1.0508 1.847,2.6015 1.847,4.75 0,0.5976 -0.097,1.5 -0.296,2.75 -0.204,1.1484 -0.352,2.1992 -0.5,3.0976 l -3.602,16.8907 c -0.25,1.301 -0.5,2.652 -0.75,4.051 -0.246,1.449 -0.348,2.699 -0.348,3.746 0,4.051 1.098,7.449 3.348,10.148 2.148,2.699 6,4.297 11.547,4.746 l 6.348,-12.843 c -2.149,-0.348 -3.7,-1.149 -4.649,-2.399 -1,-1.199 -1.5,-2.898 -1.5,-5.047 0,-0.5 0.051,-1.101 0.149,-1.75 0.05,-0.652 0.152,-1.1989 0.203,-1.6012 l 3.648,-17.1915 c 0.297,-1.4492 0.547,-2.8984 0.746,-4.3476 0.203,-1.3985 0.301,-2.8008 0.301,-4.1485 0,-4.9492 -1.449,-8.9452 -4.348,-11.8942 -2.949,-2.949 -7.047,-4.449 -12.293,-4.449 -3.05,0 -5.949,0.5 -8.797,1.5 -2.8,0.949 -6.199,2.546 -10.148,4.898 -0.148,-0.949 -0.5,-2.102 -1,-3.398 -0.547,-1.25 -1.148,-2.352 -1.797,-3.352 l -13.394,5.75 0,0 z"
       id="path3199"
       inkscape:connector-curvature="0"
       style="fill:#000000" />
    <path
       d="m 276.82,31.547 -14.144,0 -10.793,58.4764 c -0.453,1.9493 -0.801,4 -1.051,6.1485 -0.25,2.0976 -0.398,4.0471 -0.398,5.8471 0,5.797 1.097,10.547 3.347,14.243 2.25,3.699 6.047,5.898 11.395,6.597 l 6.496,-13.293 c -1.047,-0.5 -1.949,-1.05 -2.797,-1.648 -0.852,-0.551 -1.551,-1.301 -2.102,-2.149 -0.597,-0.851 -1.046,-1.851 -1.296,-3.05 -0.25,-1.2 -0.403,-2.7 -0.403,-4.4495 0,-0.8476 0.051,-1.7968 0.153,-2.7968 0.148,-1.0508 0.3,-2.1016 0.449,-3.1993 l 11.144,-60.7264 0,0 z"
       id="path3201"
       inkscape:connector-curvature="0"
       style="fill:#000000" />
    <path
       d="M 127.082,44.891 C 128.43,33.945 125.684,24.102 118.883,15.402 112.086,6.707 103.191,1.66 92.2461,0.309 81.3008,-1.039 71.4531,1.711 62.7578,8.508 c -8.0469,6.246 -12.9453,14.293 -14.6953,24.14 -0.1484,0.848 -0.3008,1.649 -0.3984,2.497 -0.1016,0.851 -0.1524,1.652 -0.1993,2.449 -0.3515,4.597 0.0977,8.996 1.2969,13.195 1.3516,4.899 3.6992,9.496 7.0977,13.844 3.3984,4.3475 7.2969,7.7498 11.7461,10.2967 3.7461,2.1484 7.8945,3.5976 12.4453,4.3984 0.8008,0.1485 1.5976,0.25 2.4492,0.3985 0.4492,0.0507 0.8984,0.1015 1.3477,0.1523 1.1015,-4.4492 2.8007,-8.5977 5.1484,-12.3479 -1.5508,0.051 -3.1484,0 -4.7461,-0.148 -0.1016,-0.051 -0.1523,-0.051 -0.2031,-0.051 -1.8477,-0.25 -3.6485,-0.598 -5.2969,-1.148 -5.1484,-1.649 -9.4961,-4.7 -13.043,-9.246 -3.5508,-4.547 -5.4492,-9.497 -5.8008,-14.895 -0.0976,-1.75 -0.0468,-3.5 0.2032,-5.348 0,-0.05 0,-0.148 0,-0.199 0.9492,-7.449 4.3984,-13.496 10.3437,-18.144 6,-4.649 12.7461,-6.547 20.293,-5.598 7.5469,0.902 13.6449,4.348 18.2929,10.348 4.649,5.996 6.547,12.742 5.649,20.293 -0.25,1.699 -0.551,3.296 -1,4.847 4.199,-1.351 8.593,-2.051 13.195,-2 0.047,-0.449 0.148,-0.898 0.199,-1.351 l 0,0 z"
       id="path3203"
       inkscape:connector-curvature="0"
       style="fill:#98bf00" />
    <path
       d="m 132.328,51.488 c -0.848,-0.097 -1.648,-0.199 -2.5,-0.25 -4.598,-0.297 -8.996,0.153 -13.191,1.301 -4.899,1.348 -9.496,3.75 -13.848,7.149 -4.3476,3.347 -7.746,7.246 -10.2421,11.6948 -2.1524,3.7461 -3.6016,7.8945 -4.4492,12.4453 4.3476,0.7461 8.3476,1.9961 12.0433,3.8477 0.25,-1.8008 0.601,-3.5 1.101,-5.0977 1.649,-5.1484 4.699,-9.4961 9.246,-13.0469 4.547,-3.5472 9.496,-5.4962 14.946,-5.8472 1.746,-0.098 3.496,-0.051 5.347,0.199 0.047,0 0.098,0 0.149,0 7.445,0.953 13.496,4.449 18.144,10.3982 4.696,5.9454 6.594,12.6954 5.645,20.2422 -0.949,7.5466 -4.399,13.6446 -10.344,18.3396 -5.949,4.649 -12.695,6.5 -20.145,5.598 0.852,4.051 1.102,8.297 0.801,12.695 9.946,0.653 18.942,-2.199 26.989,-8.445 8.699,-6.797 13.746,-15.695 15.093,-26.6407 1.352,-10.9453 -1.398,-20.7891 -8.195,-29.4883 -6.297,-8.047 -14.344,-12.945 -24.141,-14.691 -0.847,-0.153 -1.648,-0.301 -2.449,-0.403 l 0,0 z"
       id="path3205"
       inkscape:connector-curvature="0"
       style="fill:#98bf00" />
    <path
       d="m 128.93,78.7266 c -3.45,-0.3985 -6.496,0.4531 -9.246,2.6015 -2.75,2.1485 -4.297,4.8985 -4.7,8.2969 -0.449,3.4492 0.403,6.4961 2.551,9.2461 2.149,2.7499 4.899,4.2969 8.348,4.6989 3.398,0.449 6.445,-0.402 9.195,-2.551 2.75,-2.1479 4.297,-4.8979 4.746,-8.3471 0.403,-3.3985 -0.449,-6.4453 -2.597,-9.1953 -2.149,-2.75 -4.899,-4.2969 -8.297,-4.75 l 0,0 z"
       id="path3207"
       inkscape:connector-curvature="0"
       style="fill:#000000" />
    <path
       d="M 12.8281,73.6289 C 13.7773,66.082 17.2266,59.938 23.2227,55.289 29.1719,50.641 35.8672,48.742 43.3164,49.691 42.4648,45.641 42.1641,41.395 42.5156,36.996 32.5703,36.344 23.5742,39.145 15.5273,45.441 6.77734,52.238 1.78125,61.137 0.433594,72.082 -0.917969,83.0273 1.78125,92.8242 8.62891,101.57 c 6.24609,8.047 14.29299,12.946 24.14059,14.692 0.8008,0.152 1.5977,0.25 2.4493,0.402 0.8476,0.098 1.6484,0.199 2.5,0.25 4.5976,0.301 8.996,-0.152 13.1914,-1.301 4.8476,-1.398 9.496,-3.797 13.8476,-7.148 4.2969,-3.399 7.6953,-7.297 10.2461,-11.6955 2.1484,-3.7461 3.5977,-7.8945 4.4453,-12.4414 -4.3476,-0.75 -8.3437,-2.0508 -12.043,-3.8515 -0.2499,1.75 -0.6015,3.4492 -1.1015,5.0976 -1.6485,5.1485 -4.6992,9.4961 -9.2461,13.0469 -4.5469,3.5469 -9.4961,5.4959 -14.8945,5.8479 -1.75,0.097 -3.5469,0.05 -5.3985,-0.2 -0.0468,0 -0.0976,0 -0.1484,-0.05 C 29.1719,103.269 23.1211,99.8203 18.4727,93.8711 13.7773,87.875 11.8789,81.1289 12.8281,73.6289 l 0,0 z"
       id="path3209"
       inkscape:connector-curvature="0"
       style="fill:#98bf00" />
    <path
       d="m 32.4688,67.133 c -2.75,2.0975 -4.2969,4.8982 -4.7461,8.3475 -0.4024,3.3476 0.4492,6.3984 2.5976,9.1445 2.0977,2.75 4.8477,4.3477 8.2969,4.8008 3.4492,0.3476 6.4961,-0.5 9.2461,-2.6016 2.6992,-2.1484 4.2461,-4.9453 4.6992,-8.2969 0.4492,-3.4492 -0.4023,-6.5468 -2.5508,-9.2461 -2.1484,-2.7462 -4.8984,-4.2972 -8.3476,-4.6952 -3.4493,-0.453 -6.4961,0.398 -9.1953,2.547 l 0,0 z"
       id="path3211"
       inkscape:connector-curvature="0"
       style="fill:#000000" />
    <path
       d="m 97.293,32.348 c -2.1485,-2.75 -4.9492,-4.301 -8.3477,-4.7 -3.4492,-0.449 -6.4961,0.399 -9.1953,2.551 -2.75,2.098 -4.3477,4.899 -4.7461,8.344 -0.4531,3.398 0.4492,6.449 2.5977,9.199 2.0976,2.699 4.8476,4.297 8.2968,4.746 3.3985,0.352 6.4454,-0.5 9.1954,-2.597 2.75,-2.149 4.2968,-4.95 4.75,-8.297 0.3982,-3.449 -0.4532,-6.547 -2.5508,-9.246 l 0,0 z"
       id="path3213"
       inkscape:connector-curvature="0"
       style="fill:#000000" />
    <path
       d="m 85.0469,88.4258 c -0.4492,-0.0508 -0.8985,-0.1016 -1.3477,-0.1524 -1.1015,4.4493 -2.8008,8.5977 -5.1484,12.3476 1.5508,-0.102 3.1484,-0.051 4.7969,0.148 0.0507,0 0.1015,0 0.1523,0.051 1.8477,0.199 3.5977,0.551 5.2969,1.098 5.1484,1.652 9.4961,4.75 13.0431,9.297 3.551,4.5 5.449,9.445 5.801,14.894 0.097,1.75 0.047,3.5 -0.203,5.348 0,0.051 0,0.102 0,0.199 -0.95,7.45 -4.399,13.496 -10.3442,18.145 -6,4.648 -12.7461,6.547 -20.293,5.597 -7.5469,-0.949 -13.6445,-4.398 -18.293,-10.347 -4.6992,-5.996 -6.5976,-12.742 -5.6484,-20.289 0.2031,-1.7 0.5508,-3.301 1.0508,-4.852 -4.2461,1.352 -8.6446,2 -13.2461,2 -0.0469,0.449 -0.1485,0.902 -0.1993,1.352 -1.3476,10.945 1.3516,20.742 8.1993,29.488 6.7968,8.695 15.6914,13.742 26.6367,15.094 10.9453,1.347 20.7422,-1.399 29.4882,-8.199 8.047,-6.297 12.945,-14.344 14.695,-24.188 0.149,-0.801 0.25,-1.601 0.399,-2.449 0.051,-0.852 0.152,-1.649 0.199,-2.449 0.301,-4.649 -0.148,-9.047 -1.297,-13.196 -1.351,-4.898 -3.75,-9.496 -7.097,-13.844 -3.399,-4.3471 -7.297,-7.7963 -11.6958,-10.2963 -3.7969,-2.1485 -7.9453,-3.5977 -12.4961,-4.3985 -0.7969,-0.1484 -1.5977,-0.3008 -2.4492,-0.3984 l 0,0 z"
       id="path3215"
       inkscape:connector-curvature="0"
       style="fill:#98bf00" />
    <path
       d="m 89.9961,120.41 c -2.1484,-2.746 -4.8984,-4.297 -8.3477,-4.746 -3.4492,-0.398 -6.4961,0.449 -9.1953,2.598 -2.75,2.148 -4.2969,4.898 -4.75,8.297 -0.4492,3.449 0.4531,6.5 2.6016,9.246 2.0977,2.75 4.8476,4.301 8.2969,4.699 3.4492,0.449 6.4961,-0.398 9.2461,-2.551 2.6992,-2.148 4.2461,-4.894 4.6992,-8.344 0.3984,-3.398 -0.4531,-6.449 -2.5508,-9.199 l 0,0 z"
       id="path3217"
       inkscape:connector-curvature="0"
       style="fill:#000000" />
  </g>
</svg>
